<?xml version="1.0" standalone="yes"?>
<svg xmlns="http://www.w3.org/2000/svg" width="2362" height="709">
<path style="fill:#ffffff; stroke:none;" d="M0 0L0 709L2362 709L2362 0L0 0z"/>
<path style="fill:#1fd761; stroke:none;" d="M344 5.42438C324.535 7.98022 305.223 9.32825 286 13.8843C227.328 27.7897 173.663 56.7603 129 97.1697C98.4572 124.804 73.1383 159.229 54.7531 196C-5.95514 317.416 8.40677 466.538 93.4491 573C119.049 605.048 150.241 631.665 185 653.316C215.241 672.152 249.357 685.903 284 694.116C326.221 704.125 370.039 706.367 413 700.718C578.08 679.011 708.663 537.662 715.961 371C723.391 201.317 604.589 45.3132 437 11.8002C407.459 5.89288 374.101 1.47211 344 5.42438M1829 165.439C1818.69 167.046 1809.04 171.596 1802.53 180.001C1782.11 206.378 1803.87 248.417 1838 243.572C1844.83 242.602 1851.45 240.742 1857 236.471C1887.45 213.037 1869.32 159.157 1829 165.439M1919 272C1912.51 272 1895.47 268.982 1890.6 273.742C1888.01 276.277 1889 281.732 1889 285L1889 315C1889 318.268 1888.01 323.723 1890.6 326.258C1895.47 331.018 1912.51 328 1919 328L1919 468L1919 502C1919 505.651 1917.72 512.439 1920.6 515.258C1923.59 518.186 1930.2 517 1934 517L1969 517C1973.27 517 1979.96 518.108 1981.57 512.891C1983.28 507.335 1982 499.779 1982 494L1982 456L1982 328L2017 328C2021.05 328 2027.24 326.864 2030.61 329.603C2033.79 332.192 2034.9 337.365 2036.42 341C2040.34 350.33 2044.18 359.691 2048.15 369C2062.72 403.206 2076.83 437.632 2091.01 472C2095.45 482.761 2110.66 505.859 2105.2 517C2096.82 534.102 2080.99 537.684 2064 532.254C2059.23 530.729 2051.23 524.857 2046.21 526.786C2042.53 528.204 2041.27 533.783 2039.74 537C2036.08 544.702 2019.84 569.599 2029.06 575.648C2060.85 596.514 2117.07 596.206 2142.56 566C2159.64 545.76 2167.36 520.169 2177 496C2192.88 456.176 2208.18 416.071 2223.42 376C2232.83 351.281 2242.78 326.771 2252.05 302C2254.34 295.891 2262.75 282.62 2260.35 276.148C2259.09 272.743 2254.97 273.021 2252 273.001C2243.67 272.943 2235.33 273 2227 273C2219.59 273 2204.66 270.149 2198.22 274.028C2193.12 277.101 2191.86 287.756 2189.95 293C2183.16 311.565 2176.64 330.266 2170.33 349C2160.57 378.011 2151.96 409.283 2139 437L2092.81 317L2081 286L2074.78 274.028L2048 273L1981 273C1981 267.679 1980.67 262.258 1981.62 257C1985.35 236.301 2003.75 232.305 2022 236.004C2027.2 237.058 2035.65 241.498 2040.85 239.382C2045.03 237.68 2044 231.594 2044 228C2044 217.313 2047.57 198.937 2043.26 189.133C2041.37 184.845 2035.02 184.313 2031 183.424C2018.28 180.614 2005.98 180 1993 180C1984.16 180 1975.57 180.81 1967 183.158C1925.43 194.55 1919 235.054 1919 272z"/>
<path style="fill:#ffffff; stroke:none;" d="M304 190.424C251.586 197.306 196.335 192.863 146 213.454C118.682 224.629 120.786 263.854 148 273.452C159.431 277.484 170.906 272.651 182 269.873C200.73 265.185 219.778 261.231 239 259.166C300.527 252.555 362.85 253.181 424 263.435C464.748 270.269 504.048 281.726 542 298.001C559.434 305.477 577.994 322.978 598 317.51C620.301 311.414 628.915 283.935 614.471 266.039C603.189 252.062 579.121 243.908 563 237.001C503.654 211.571 439.275 197.623 375 192.911C352.192 191.239 326.771 187.435 304 190.424z"/>
<path style="fill:#1fd761; stroke:none;" d="M936 191.424C914.863 194.2 895.84 196.983 877 208.012C827.604 236.928 815.766 312.946 860 351.816C886.882 375.437 925.862 380.294 959 389.71C979.854 395.635 1011.32 405.201 1006.67 433C1003.89 449.652 988.32 458.892 973 461.996C944.374 467.796 913.613 459.398 889 444.55C880.865 439.642 873.36 433.905 866 427.924C862.989 425.477 859.268 422.103 855.17 424.198C844.697 429.549 834.913 446.985 827.414 456C824.851 459.081 819.729 463.483 820.876 467.996C821.935 472.167 826.862 475.089 830 477.6C837.964 483.974 846.243 489.576 855 494.799C891.651 516.66 937.78 525.685 980 519.572C999.511 516.747 1019.05 510.37 1035 498.522C1074.51 469.171 1086.2 400.391 1048.91 364.17C1024.01 339.985 987.547 331.763 955 323.627C932.433 317.985 896.3 310.168 897.015 281C897.386 265.829 910.402 255.497 924 251.44C948.183 244.225 977.632 251.891 999 264C1005.14 267.481 1023.25 283.269 1029.91 279.953C1036.22 276.806 1041.42 265.693 1045.34 260C1049.24 254.326 1062.71 241.265 1061.04 234.015C1059.1 225.56 1041.9 218.042 1035 214.012C1007.22 197.79 968.328 187.18 936 191.424M1652 272C1645.51 272 1628.47 268.982 1623.6 273.742C1621.01 276.277 1622 281.732 1622 285L1622 315C1622 318.268 1621.01 323.723 1623.6 326.258C1628.47 331.018 1645.51 328 1652 328L1652 432C1652 454.363 1651.02 477.938 1664.93 497C1683.24 522.103 1721.06 524.388 1749 518.338C1756.24 516.769 1774.41 513.21 1776.68 504.907C1779.63 494.124 1777 479.186 1777 468C1777 464.561 1778.21 457.533 1773.77 456.333C1768.77 454.983 1762.63 459.372 1758 460.795C1744.58 464.915 1725.19 466.744 1717.44 452C1712.03 441.694 1715 425.317 1715 414L1715 328L1758 328L1775.68 326.821L1778 315L1778 284L1775.57 273.179L1758 272L1715 272L1715 228L1713.82 210.318L1701 208L1666 208L1653.03 210.318L1652 228L1652 272M1154 302C1154 295.402 1157.19 277.101 1150.77 273.179C1147.12 270.946 1141.1 272 1137 272L1104 272C1099.29 272 1092.17 270.899 1091.15 277.044C1087.39 299.697 1091 326.008 1091 349L1091 498L1091 559C1091 566.222 1088.7 578.193 1091.6 584.852C1093.6 589.414 1101.01 588 1105 588L1140 588C1143.69 588 1150.42 589.28 1152.82 585.682C1156.67 579.907 1154 565.776 1154 559L1154 489C1172.29 507.29 1192.84 519.171 1219 521.089C1239.51 522.592 1259.2 519.39 1278 510.691C1349.5 477.611 1363.16 368.934 1316.99 310C1276.94 258.897 1197.53 252.21 1154 302M1472 268.425C1452.74 271.047 1434.66 277.088 1418 287.204C1350.34 328.28 1339.86 426.105 1393.09 482.999C1422.28 514.198 1467.46 526.605 1509 520.714C1526.7 518.205 1543.71 512.028 1559 502.796C1572.73 494.504 1584.22 483.765 1593.87 471C1630.7 422.279 1626.32 348.502 1582.91 305.09C1554.51 276.685 1511.76 263.013 1472 268.425M1805.23 272.742C1800.05 275.16 1802 285.384 1802 290L1802 344L1802 469L1802 502C1802 505.557 1800.9 511.481 1803.03 514.566C1805.63 518.346 1813.08 517 1817 517L1848 517C1852.1 517 1857.97 518.034 1861.77 516.258C1866.95 513.84 1865 503.616 1865 499L1865 445L1865 320L1865 288C1865 284.111 1866.15 277.812 1863.82 274.434C1861.22 270.657 1853.92 272 1850 272L1819 272C1814.9 272 1809.03 270.966 1805.23 272.742M2300 272.439C2250.37 280.254 2263.4 355.85 2313 348.7C2362.62 341.547 2349.4 264.66 2300 272.439z"/>
<path style="fill:#ffffff; stroke:none;" d="M2300 277.465C2257.18 285.188 2270.13 351.265 2313 343.535C2355.64 335.847 2342.64 269.775 2300 277.465z"/>
<path style="fill:#1fd761; stroke:none;" d="M2291 289L2291 330L2299 330L2299 316C2308.76 316.116 2308.62 323.319 2315.33 328.397C2318.27 330.625 2322.53 330 2326 330L2317 314C2325.72 309.832 2328.03 296.843 2318.91 291.417C2311.3 286.895 2299.5 289 2291 289z"/>
<path style="fill:#ffffff; stroke:none;" d="M2299 297L2299 308C2303.06 308 2309.23 309.128 2312.85 306.972C2325 299.736 2302.72 297 2299 297M276 311.424C249.798 314.865 223.953 316.843 198 322.576C186.951 325.016 174.068 326.987 164 332.327C143.847 343.017 145.935 375.431 169 381.482C180.463 384.49 191.957 378.848 203 376.235C222.176 371.696 241.439 368.602 261 366.285C310.841 360.382 363.055 364.674 412 375.424C443.981 382.449 475.654 392.583 505 407.247C519.12 414.302 536.304 429.595 553 425.073C571.9 419.952 578.544 396.942 566.471 382.04C555.032 367.921 529.366 359.019 513 352.001C459.138 328.904 402.378 315.912 344 311.91C322.185 310.415 297.759 308.567 276 311.424M1211 323.425C1174.62 328.378 1150.5 360.633 1152.04 397C1153.59 433.804 1182.04 470.493 1222 465.715C1267.29 460.297 1285.91 414.947 1276.99 374C1270.54 344.434 1242.49 319.139 1211 323.425M1478 324.439C1405.77 335.721 1403.05 448.698 1474 464.575C1482.21 466.413 1491.65 466.865 1500 465.561C1572.25 454.276 1574.09 342.083 1504 325.503C1495.84 323.572 1486.3 323.142 1478 324.439M301 424.424C260.584 429.731 218.443 427.907 179 440.785C160.879 446.702 159.354 472.816 177 480.467C185.531 484.165 195.471 480.577 204 478.65C218.461 475.384 233.308 473.214 248 471.282C293.343 465.319 338.856 465.458 384 473.081C413.965 478.141 443.807 487.659 471 501.247C483.431 507.459 499.428 521.546 514 517.506C527.635 513.726 533.65 496.586 525.351 485.015C516.498 472.669 495.303 465.695 482 459.258C441.291 439.561 394.926 429.059 350 425.91C334.077 424.794 316.927 422.333 301 424.424z"/>
</svg>
